<?xml version="1.0" standalone="no"?>
<!DOCTYPE svg PUBLIC "-//W3C//DTD SVG 20010904//EN"
 "http://www.w3.org/TR/2001/REC-SVG-20010904/DTD/svg10.dtd">
<svg version="1.0" xmlns="http://www.w3.org/2000/svg"
 width="200.000000pt" height="200.000000pt" viewBox="0 0 200.000000 200.000000"
 preserveAspectRatio="xMidYMid meet">

<g transform="translate(0.000000,200.000000) scale(0.100000,-0.100000)"
fill="#4353ff" stroke="#ccc">
<path d="M565 1540 c-5 -9 133 -220 145 -220 5 0 101 143 108 161 2 5 -6 22
-18 39 l-21 30 -104 0 c-57 0 -107 -4 -110 -10z"/>
<path d="M1041 1468 l-53 -81 22 -44 c22 -45 109 -174 152 -226 23 -28 23 -28
136 -25 l112 3 -75 112 c-41 62 -75 115 -75 118 0 9 -95 147 -124 180 -14 17
-26 33 -26 38 0 21 -20 -1 -69 -75z"/>
<path d="M883 1230 c-29 -44 -53 -83 -53 -87 1 -5 9 -18 19 -30 18 -21 27 -23
135 -23 64 0 116 3 116 6 0 15 -148 214 -159 214 -3 0 -30 -36 -58 -80z"/>
</g>
</svg>
